<?xml version="1.0" encoding="UTF-8"?>
<svg width="1024px" height="1024px" viewBox="0 0 1024 1024" version="1.1" xmlns="http://www.w3.org/2000/svg" xmlns:xlink="http://www.w3.org/1999/xlink">
    <title>Jira</title>
    <defs>
        <linearGradient x1="98.0308675%" y1="0.350698447%" x2="58.8877062%" y2="40.800747%" id="linearGradient-1">
            <stop stop-color="#0052CC" offset="18%"></stop>
            <stop stop-color="#2684FF" offset="100%"></stop>
        </linearGradient>
        <linearGradient x1="100.665247%" y1="0.644007293%" x2="55.4018095%" y2="44.7470931%" id="linearGradient-2">
            <stop stop-color="#0052CC" offset="18%"></stop>
            <stop stop-color="#2684FF" offset="100%"></stop>
        </linearGradient>
    </defs>
    <g id="Jira" stroke="none" stroke-width="1" fill="none" fill-rule="evenodd">
        <g id="jira-seeklogo.com" transform="translate(17.000000, 17.000000)" fill-rule="nonzero">
            <path d="M948.598782,0 L471.380711,0 C471.380711,57.0250249 494.077137,111.714453 534.477041,152.037234 C574.876944,192.360016 629.67097,215.013119 686.805062,215.013119 L774.713655,215.013119 L774.713655,299.723605 C774.78978,418.364512 871.132181,514.523005 990,514.598985 L990,41.3221883 C990,18.5005738 971.464043,0 948.598782,0 Z" id="Path" fill="#2684FF"></path>
            <path d="M713.410961,238.203046 L236.192893,238.203046 C236.269017,356.843955 332.61142,453.002445 451.479241,453.078425 L539.387833,453.078425 L539.387833,538.064393 C539.54013,656.705261 635.944303,752.80203 754.812183,752.80203 L754.812183,279.525234 C754.812183,256.70362 736.276226,238.203046 713.410961,238.203046 Z" id="Path" fill="url(#linearGradient-1)"></path>
            <path d="M477.218068,475.401015 L0,475.401015 C0,594.149483 96.448767,690.414135 215.42435,690.414135 L303.60895,690.414135 L303.60895,775.124623 C303.684811,893.658129 399.859269,989.772223 518.619289,990 L518.619289,516.723205 C518.619289,493.901588 500.083329,475.401015 477.218068,475.401015 Z" id="Path" fill="url(#linearGradient-2)"></path>
        </g>
    </g>
</svg>